<svg width="20" height="20" fill="none" xmlns="http://www.w3.org/2000/svg"><path d="M10 19.281C4.882 19.281.719 15.117.719 10 .719 4.882 4.882.719 10 .719S19.281 4.882 19.281 10c0 5.117-4.163 9.281-9.281 9.281zm0-17.53c-4.549 0-8.25 3.7-8.25 8.249 0 4.548 3.701 8.248 8.25 8.248 4.549 0 8.25-3.7 8.25-8.248 0-4.548-3.701-8.248-8.25-8.248z" fill="#0094DF"/><path d="M11.18 14.82V7.934H7.735v1.033H8.77v5.853H7.736v1.033h4.476V14.82h-1.033zM9.993 7.037a1.411 1.411 0 100-2.822 1.411 1.411 0 000 2.822z" fill="#0094DF"/></svg>